<svg xmlns="http://www.w3.org/2000/svg" height="40" viewBox="0 -960 960 960" width="40"><path d="M205.127-221.899v56.77q0 10.679-7.224 17.903-7.224 7.225-17.903 7.225h-14.871q-10.679 0-17.903-7.225-7.225-7.224-7.225-17.903v-308.819l82.103-240.923q4.051-11.615 14.076-18.371 10.026-6.757 22.487-6.757h444.205q12.157 0 21.583 6.744 9.427 6.743 13.441 18.384l82.103 240.923v308.819q0 10.679-7.225 17.903-7.224 7.225-17.903 7.225H779.59q-10.955 0-17.836-7.225-6.881-7.224-6.881-17.903v-56.77H205.127Zm4.975-302.304h539.796l-56.821-165.541H266.923l-56.821 165.541Zm-19.846 50.255v201.794-201.794ZM291.581-323.18q20.957 0 35.2-14.501 14.244-14.5 14.244-35.05 0-21.106-14.501-35.649-14.5-14.542-34.968-14.542-21.022 0-35.648 14.587-14.626 14.587-14.626 35.628 0 21.04 14.671 35.284 14.67 14.243 35.628 14.243Zm377.454 0q20.947 0 35.52-14.501 14.573-14.5 14.573-35.05 0-21.106-14.618-35.649-14.617-14.542-35.499-14.542t-35.254 14.587q-14.372 14.587-14.372 35.628 0 21.04 14.629 35.284 14.629 14.243 35.021 14.243Zm-478.779 51.026h579.488v-201.794H190.256v201.794Z"/></svg>